<svg width="32" height="32" viewBox="0 0 32 32" fill="none" xmlns="http://www.w3.org/2000/svg">
  <g clip-path="url(#clip0_bf)">
    <!-- Dark background -->
    <rect width="32" height="32" rx="6" fill="#0f172a"/>
    
    <!-- Outer forge flame/arcs -->
    <path d="M6 22C6 26.5 9.5 28.5 16 28.5C10.5 25 8.5 18 8.5 13C8.5 9.5 10 7 12 5.5C8.5 8.5 6 15.5 6 22Z" fill="url(#forgeGrad1)"/>
    <path d="M26 10C26 5.5 22.5 3.5 16 3.5C21.5 7 23.5 14 23.5 19C23.5 22.5 22 25 20 26.5C23.5 23.5 26 16.5 26 10Z" fill="url(#forgeGrad2)"/>
    
    <!-- Central database cylinders -->
    <!-- Top cylinder -->
    <path d="M11 9.5C11 8.7 13.2 8 16 8C18.8 8 21 8.7 21 9.5V11C21 11.8 18.8 12.5 16 12.5C13.2 12.5 11 11.8 11 11V9.5Z" fill="url(#dbGrad)"/>
    <ellipse cx="16" cy="9.5" rx="5" ry="1.5" fill="#ffe0b2"/>
    
    <!-- Middle cylinder -->
    <path d="M11 13.5C11 14.3 13.2 15 16 15C18.8 15 21 14.3 21 13.5V15C21 15.8 18.8 16.5 16 16.5C13.2 16.5 11 15.8 11 15V13.5Z" fill="url(#dbGrad)"/>
    <ellipse cx="16" cy="13.5" rx="5" ry="1.5" fill="#ffd54f" opacity="0.8"/>
    
    <!-- Bottom cylinder -->
    <path d="M11 17.5C11 18.3 13.2 19 16 19C18.8 19 21 18.3 21 17.5V19C21 19.8 18.8 20.5 16 20.5C13.2 20.5 11 19.8 11 19V17.5Z" fill="url(#dbGrad)"/>
    <ellipse cx="16" cy="17.5" rx="5" ry="1.5" fill="#ffb300" opacity="0.8"/>
  </g>
  
  <defs>
    <clipPath id="clip0_bf">
      <rect width="32" height="32" rx="6" fill="white"/>
    </clipPath>
    <linearGradient id="forgeGrad1" x1="6" y1="5.5" x2="16" y2="28.5" gradientUnits="userSpaceOnUse">
      <stop offset="0%" stop-color="#3b82f6"/>
      <stop offset="50%" stop-color="#8b5cf6"/>
      <stop offset="100%" stop-color="#ec4899"/>
    </linearGradient>
    <linearGradient id="forgeGrad2" x1="26" y1="26.5" x2="16" y2="3.5" gradientUnits="userSpaceOnUse">
      <stop offset="0%" stop-color="#f97316"/>
      <stop offset="50%" stop-color="#ef4444"/>
      <stop offset="100%" stop-color="#ec4899"/>
    </linearGradient>
    <linearGradient id="dbGrad" x1="11" y1="8" x2="21" y2="20.5" gradientUnits="userSpaceOnUse">
      <stop offset="0%" stop-color="#ffb300"/>
      <stop offset="100%" stop-color="#ff3d00"/>
    </linearGradient>
  </defs>
</svg>
